<mxfile host="app.diagrams.net" modified="2023-11-22T18:05:30.011Z" agent="Mozilla/5.0 (Windows NT 10.0; Win64; x64) AppleWebKit/537.36 (KHTML, like Gecko) Chrome/119.0.0.0 Safari/537.36" etag="MX4WRkMvhaNDZ-5BBmEV" version="22.1.3" type="device">
  <diagram name="Page-1" id="5f0bae14-7c28-e335-631c-24af17079c00">
    <mxGraphModel dx="1657" dy="637" grid="0" gridSize="10" guides="1" tooltips="1" connect="1" arrows="1" fold="1" page="0" pageScale="1" pageWidth="1100" pageHeight="850" background="none" math="0" shadow="0">
      <root>
        <mxCell id="0" />
        <mxCell id="1" parent="0" />
        <mxCell id="39150e848f15840c-1" value="KnapsackGAActorModel" style="verticalAlign=top;align=left;spacingTop=8;spacingLeft=2;spacingRight=12;shape=cube;size=10;direction=south;fontStyle=4;html=1;rounded=0;shadow=0;comic=0;labelBackgroundColor=none;strokeWidth=1;fontFamily=Verdana;fontSize=12" parent="1" vertex="1">
          <mxGeometry x="-195" y="90" width="1580" height="940" as="geometry" />
        </mxCell>
        <mxCell id="39150e848f15840c-4" value="Main" style="html=1;rounded=0;shadow=0;comic=0;labelBackgroundColor=none;strokeWidth=1;fontFamily=Verdana;fontSize=12;align=center;" parent="1" vertex="1">
          <mxGeometry x="1190" y="130" width="110" height="50" as="geometry" />
        </mxCell>
        <mxCell id="ggJ8VVT-QNIgYPawVBMV-8" style="edgeStyle=orthogonalEdgeStyle;rounded=0;orthogonalLoop=1;jettySize=auto;html=1;exitX=0.75;exitY=0;exitDx=0;exitDy=0;entryX=0.5;entryY=1;entryDx=0;entryDy=0;endArrow=none;endFill=0;" edge="1" parent="1" source="39150e848f15840c-5" target="39150e848f15840c-4">
          <mxGeometry relative="1" as="geometry" />
        </mxCell>
        <mxCell id="ggJ8VVT-QNIgYPawVBMV-18" style="edgeStyle=orthogonalEdgeStyle;rounded=0;orthogonalLoop=1;jettySize=auto;html=1;exitX=0;exitY=0.3;exitDx=0;exitDy=0;entryX=0;entryY=0.7;entryDx=0;entryDy=0;" edge="1" parent="1" source="39150e848f15840c-5" target="T32Lro_N3GrEsgApjSWy-5">
          <mxGeometry relative="1" as="geometry">
            <Array as="points">
              <mxPoint x="1090" y="250" />
              <mxPoint x="50" y="250" />
              <mxPoint x="50" y="765" />
            </Array>
          </mxGeometry>
        </mxCell>
        <mxCell id="ggJ8VVT-QNIgYPawVBMV-41" style="edgeStyle=orthogonalEdgeStyle;rounded=0;orthogonalLoop=1;jettySize=auto;html=1;exitX=0;exitY=0.3;exitDx=0;exitDy=0;entryX=0;entryY=0.7;entryDx=0;entryDy=0;" edge="1" parent="1" source="39150e848f15840c-5" target="T32Lro_N3GrEsgApjSWy-1">
          <mxGeometry relative="1" as="geometry">
            <Array as="points">
              <mxPoint x="-104" y="245" />
              <mxPoint x="-104" y="905" />
            </Array>
          </mxGeometry>
        </mxCell>
        <mxCell id="39150e848f15840c-5" value="KnapsackGAManager" style="shape=component;align=left;spacingLeft=36;rounded=0;shadow=0;comic=0;labelBackgroundColor=none;strokeWidth=1;fontFamily=Verdana;fontSize=12;html=1;" parent="1" vertex="1">
          <mxGeometry x="1090" y="230" width="190" height="50" as="geometry" />
        </mxCell>
        <mxCell id="ggJ8VVT-QNIgYPawVBMV-19" style="edgeStyle=orthogonalEdgeStyle;rounded=0;orthogonalLoop=1;jettySize=auto;html=1;exitX=0;exitY=0.3;exitDx=0;exitDy=0;entryX=0;entryY=0.7;entryDx=0;entryDy=0;" edge="1" parent="1" source="T32Lro_N3GrEsgApjSWy-1" target="T32Lro_N3GrEsgApjSWy-5">
          <mxGeometry relative="1" as="geometry">
            <Array as="points">
              <mxPoint x="20" y="885" />
              <mxPoint x="20" y="765" />
            </Array>
          </mxGeometry>
        </mxCell>
        <mxCell id="ggJ8VVT-QNIgYPawVBMV-23" style="edgeStyle=orthogonalEdgeStyle;rounded=0;orthogonalLoop=1;jettySize=auto;html=1;exitX=0;exitY=0.3;exitDx=0;exitDy=0;entryX=0;entryY=0.7;entryDx=0;entryDy=0;" edge="1" parent="1" source="T32Lro_N3GrEsgApjSWy-1" target="T32Lro_N3GrEsgApjSWy-5">
          <mxGeometry relative="1" as="geometry">
            <Array as="points">
              <mxPoint x="82" y="885" />
              <mxPoint x="82" y="800" />
              <mxPoint x="390" y="800" />
            </Array>
          </mxGeometry>
        </mxCell>
        <mxCell id="T32Lro_N3GrEsgApjSWy-1" value="KnapsackGAActorInitializer" style="shape=component;align=left;spacingLeft=36;rounded=0;shadow=0;comic=0;labelBackgroundColor=none;strokeWidth=1;fontFamily=Verdana;fontSize=12;html=1;" parent="1" vertex="1">
          <mxGeometry x="70" y="870" width="210" height="50" as="geometry" />
        </mxCell>
        <mxCell id="ggJ8VVT-QNIgYPawVBMV-34" style="edgeStyle=orthogonalEdgeStyle;rounded=0;orthogonalLoop=1;jettySize=auto;html=1;exitX=0;exitY=0.3;exitDx=0;exitDy=0;entryX=0;entryY=0.7;entryDx=0;entryDy=0;" edge="1" parent="1" source="T32Lro_N3GrEsgApjSWy-2" target="39150e848f15840c-5">
          <mxGeometry relative="1" as="geometry" />
        </mxCell>
        <mxCell id="ggJ8VVT-QNIgYPawVBMV-36" style="edgeStyle=orthogonalEdgeStyle;rounded=0;orthogonalLoop=1;jettySize=auto;html=1;exitX=0;exitY=0.3;exitDx=0;exitDy=0;entryX=0;entryY=0.7;entryDx=0;entryDy=0;" edge="1" parent="1" source="T32Lro_N3GrEsgApjSWy-2" target="39150e848f15840c-5">
          <mxGeometry relative="1" as="geometry">
            <Array as="points">
              <mxPoint x="940" y="340" />
              <mxPoint x="1090" y="340" />
            </Array>
          </mxGeometry>
        </mxCell>
        <mxCell id="T32Lro_N3GrEsgApjSWy-2" value="KnapsackGAActorMutate" style="shape=component;align=left;spacingLeft=36;rounded=0;shadow=0;comic=0;labelBackgroundColor=none;strokeWidth=1;fontFamily=Verdana;fontSize=12;html=1;" parent="1" vertex="1">
          <mxGeometry x="940" y="350" width="200" height="50" as="geometry" />
        </mxCell>
        <mxCell id="ggJ8VVT-QNIgYPawVBMV-32" style="edgeStyle=orthogonalEdgeStyle;rounded=0;orthogonalLoop=1;jettySize=auto;html=1;exitX=0;exitY=0.3;exitDx=0;exitDy=0;entryX=0;entryY=0.7;entryDx=0;entryDy=0;" edge="1" parent="1" source="T32Lro_N3GrEsgApjSWy-3" target="T32Lro_N3GrEsgApjSWy-2">
          <mxGeometry relative="1" as="geometry">
            <Array as="points">
              <mxPoint x="757" y="487" />
              <mxPoint x="757" y="450" />
              <mxPoint x="940" y="450" />
            </Array>
          </mxGeometry>
        </mxCell>
        <mxCell id="ggJ8VVT-QNIgYPawVBMV-39" style="edgeStyle=orthogonalEdgeStyle;rounded=0;orthogonalLoop=1;jettySize=auto;html=1;exitX=0;exitY=0.3;exitDx=0;exitDy=0;entryX=0;entryY=0.7;entryDx=0;entryDy=0;" edge="1" parent="1" source="T32Lro_N3GrEsgApjSWy-3" target="T32Lro_N3GrEsgApjSWy-2">
          <mxGeometry relative="1" as="geometry" />
        </mxCell>
        <mxCell id="T32Lro_N3GrEsgApjSWy-3" value="KnapsackGAActorCrossOver" style="shape=component;align=left;spacingLeft=36;rounded=0;shadow=0;comic=0;labelBackgroundColor=none;strokeWidth=1;fontFamily=Verdana;fontSize=12;html=1;" parent="1" vertex="1">
          <mxGeometry x="750" y="470" width="220" height="55" as="geometry" />
        </mxCell>
        <mxCell id="ggJ8VVT-QNIgYPawVBMV-27" style="edgeStyle=orthogonalEdgeStyle;rounded=0;orthogonalLoop=1;jettySize=auto;html=1;exitX=0;exitY=0.3;exitDx=0;exitDy=0;entryX=0;entryY=0.7;entryDx=0;entryDy=0;" edge="1" parent="1" source="T32Lro_N3GrEsgApjSWy-4" target="T32Lro_N3GrEsgApjSWy-3">
          <mxGeometry relative="1" as="geometry">
            <Array as="points">
              <mxPoint x="490" y="615" />
              <mxPoint x="490" y="509" />
            </Array>
          </mxGeometry>
        </mxCell>
        <mxCell id="ggJ8VVT-QNIgYPawVBMV-25" style="edgeStyle=orthogonalEdgeStyle;rounded=0;orthogonalLoop=1;jettySize=auto;html=1;exitX=0;exitY=0.3;exitDx=0;exitDy=0;entryX=0;entryY=0.7;entryDx=0;entryDy=0;" edge="1" parent="1" source="T32Lro_N3GrEsgApjSWy-5" target="T32Lro_N3GrEsgApjSWy-4">
          <mxGeometry relative="1" as="geometry" />
        </mxCell>
        <mxCell id="T32Lro_N3GrEsgApjSWy-5" value="KnapsackGAActorMeasureFitness" style="shape=component;align=left;spacingLeft=36;rounded=0;shadow=0;comic=0;labelBackgroundColor=none;strokeWidth=1;fontFamily=Verdana;fontSize=12;html=1;" parent="1" vertex="1">
          <mxGeometry x="390" y="730" width="255" height="50" as="geometry" />
        </mxCell>
        <mxCell id="T32Lro_N3GrEsgApjSWy-34" style="edgeStyle=orthogonalEdgeStyle;rounded=0;orthogonalLoop=1;jettySize=auto;html=1;exitX=0.5;exitY=1;exitDx=0;exitDy=0;" parent="1" edge="1">
          <mxGeometry relative="1" as="geometry">
            <mxPoint x="215" y="700" as="sourcePoint" />
            <mxPoint x="215" y="700" as="targetPoint" />
          </mxGeometry>
        </mxCell>
        <mxCell id="T32Lro_N3GrEsgApjSWy-37" value="«Message»&lt;br&gt;&lt;b&gt;SendIndividualMessage&amp;lt;index,individual&amp;gt;&lt;/b&gt;" style="html=1;whiteSpace=wrap;" parent="1" vertex="1">
          <mxGeometry x="-80" y="740" width="250" height="30" as="geometry" />
        </mxCell>
        <mxCell id="ggJ8VVT-QNIgYPawVBMV-6" value="«Message»&lt;br&gt;&lt;b&gt;SendIndividualMessage&amp;lt;index,individual&amp;gt;&lt;/b&gt;" style="html=1;whiteSpace=wrap;" vertex="1" parent="1">
          <mxGeometry x="520" y="400" width="250" height="30" as="geometry" />
        </mxCell>
        <mxCell id="ggJ8VVT-QNIgYPawVBMV-9" value="«Message»&lt;br&gt;&lt;b&gt;SendIndividualMessage&amp;lt;index,individual&amp;gt;&lt;/b&gt;" style="html=1;whiteSpace=wrap;" vertex="1" parent="1">
          <mxGeometry x="735" y="300" width="250" height="30" as="geometry" />
        </mxCell>
        <mxCell id="ggJ8VVT-QNIgYPawVBMV-11" value="«Message»&lt;br&gt;&lt;b&gt;MeasureFitnessMessage&lt;/b&gt;" style="html=1;whiteSpace=wrap;" vertex="1" parent="1">
          <mxGeometry x="170" y="790" width="170" height="45" as="geometry" />
        </mxCell>
        <mxCell id="ggJ8VVT-QNIgYPawVBMV-12" value="«Message»&lt;br&gt;&lt;b&gt;SendPopulationMessage&amp;lt;Individual[]&amp;gt;&lt;/b&gt;" style="html=1;whiteSpace=wrap;" vertex="1" parent="1">
          <mxGeometry x="250" y="660" width="250" height="30" as="geometry" />
        </mxCell>
        <mxCell id="ggJ8VVT-QNIgYPawVBMV-13" value="«Message»&lt;br&gt;&lt;b&gt;SendPopulationMessage&amp;lt;Individual[]&amp;gt;&lt;/b&gt;" style="html=1;whiteSpace=wrap;" vertex="1" parent="1">
          <mxGeometry x="340" y="545" width="250" height="30" as="geometry" />
        </mxCell>
        <mxCell id="ggJ8VVT-QNIgYPawVBMV-15" value="«Message»&lt;br&gt;&lt;b&gt;MutatePopultionMessage&lt;/b&gt;" style="html=1;whiteSpace=wrap;" vertex="1" parent="1">
          <mxGeometry x="820" y="425" width="250" height="30" as="geometry" />
        </mxCell>
        <mxCell id="ggJ8VVT-QNIgYPawVBMV-29" style="edgeStyle=orthogonalEdgeStyle;rounded=0;orthogonalLoop=1;jettySize=auto;html=1;exitX=0;exitY=0.3;exitDx=0;exitDy=0;entryX=0.047;entryY=0.754;entryDx=0;entryDy=0;entryPerimeter=0;" edge="1" parent="1" source="T32Lro_N3GrEsgApjSWy-4" target="T32Lro_N3GrEsgApjSWy-3">
          <mxGeometry relative="1" as="geometry">
            <Array as="points">
              <mxPoint x="600" y="615" />
              <mxPoint x="600" y="590" />
              <mxPoint x="760" y="590" />
            </Array>
          </mxGeometry>
        </mxCell>
        <mxCell id="ggJ8VVT-QNIgYPawVBMV-14" value="«Message»&lt;br&gt;&lt;b&gt;SendBestIndividualMessage&amp;lt;Individual&amp;gt;&lt;/b&gt;" style="html=1;whiteSpace=wrap;" vertex="1" parent="1">
          <mxGeometry x="620" y="545" width="250" height="30" as="geometry" />
        </mxCell>
        <mxCell id="T32Lro_N3GrEsgApjSWy-4" value="KnapsackGAActorBestIndividual" style="shape=component;align=left;spacingLeft=36;rounded=0;shadow=0;comic=0;labelBackgroundColor=none;strokeWidth=1;fontFamily=Verdana;fontSize=12;html=1;" parent="1" vertex="1">
          <mxGeometry x="590" y="600" width="250" height="50" as="geometry" />
        </mxCell>
        <mxCell id="ggJ8VVT-QNIgYPawVBMV-35" value="«Message»&lt;br&gt;&lt;b&gt;GenerationIsFinished&lt;/b&gt;" style="html=1;whiteSpace=wrap;" vertex="1" parent="1">
          <mxGeometry x="1000" y="300" width="250" height="30" as="geometry" />
        </mxCell>
        <mxCell id="T32Lro_N3GrEsgApjSWy-16" value="«Message»&lt;br&gt;&lt;b&gt;InitializePopulationRMessage&lt;/b&gt;" style="html=1;whiteSpace=wrap;" parent="1" vertex="1">
          <mxGeometry x="-183" y="522" width="170" height="45" as="geometry" />
        </mxCell>
      </root>
    </mxGraphModel>
  </diagram>
</mxfile>
